<?xml version="1.0" standalone="no"?>
<!DOCTYPE svg PUBLIC "-//W3C//DTD SVG 20010904//EN"
 "http://www.w3.org/TR/2001/REC-SVG-20010904/DTD/svg10.dtd">
<svg version="1.0" xmlns="http://www.w3.org/2000/svg"
 width="1040.000000pt" height="1040.000000pt" viewBox="0 0 1040.000000 1040.000000"
 preserveAspectRatio="xMidYMid meet">
<metadata>
Created by potrace 1.14, written by Peter Selinger 2001-2017
</metadata>
<g transform="translate(0.000000,1040.000000) scale(0.100000,-0.100000)"
fill="#000000" stroke="none">
<path d="M1305 9866 c-398 -63 -784 -306 -1027 -646 -109 -153 -213 -394 -255
-590 -17 -81 -18 -211 -18 -2555 0 -2346 1 -2474 18 -2555 39 -184 133 -407
236 -560 202 -302 533 -542 871 -633 189 -52 256 -59 588 -64 221 -4 312 -9
312 -17 0 -6 -21 -110 -46 -231 -25 -121 -56 -276 -69 -345 -27 -141 -97 -490
-150 -745 -42 -203 -43 -244 -11 -299 35 -60 93 -90 164 -84 52 5 158 58 1237
625 649 341 1383 726 1631 856 l450 237 1805 0 c1122 0 1847 4 1917 10 349 31
653 159 915 384 244 210 432 534 504 868 17 79 18 213 18 2553 0 2344 -1 2474
-18 2555 -43 203 -146 437 -265 604 -75 105 -235 266 -347 349 -155 115 -391
221 -606 273 -71 18 -252 19 -3924 20 -3047 2 -3867 0 -3930 -10z m4493 -1542
c128 -116 153 -148 182 -243 34 -108 34 -111 -75 -606 -25 -110 -60 -275 -80
-368 -20 -92 -38 -174 -41 -182 -5 -13 77 -15 699 -15 434 0 725 -4 758 -10
128 -24 245 -114 304 -234 37 -74 59 -186 37 -186 -7 0 -12 -88 -14 -282 l-3
-283 -72 -165 c-39 -91 -189 -444 -333 -785 -144 -341 -273 -641 -288 -668
-31 -57 -113 -137 -171 -167 -98 -49 -105 -50 -1176 -50 -1071 0 -1078 1
-1176 51 -68 34 -152 121 -190 196 l-34 67 0 1210 c0 1159 1 1213 19 1261 16
44 104 136 775 808 415 416 757 757 759 757 2 0 56 -48 120 -106z m-2128
-2939 l0 -1305 -430 0 -430 0 0 1305 0 1305 430 0 430 0 0 -1305z"/>
</g>
</svg>
